<svg width="148" height="62" viewBox="0 0 148 62" fill="none" xmlns="http://www.w3.org/2000/svg">
<rect width="147.59" height="61.496" rx="10.6386" fill="#121410"/>
<path d="M40.2785 31.0067C40.2944 29.7693 40.6214 28.5559 41.2293 27.4796C41.8371 26.4033 42.7059 25.499 43.7549 24.8508C43.0885 23.8943 42.2094 23.1071 41.1873 22.5518C40.1652 21.9965 39.0284 21.6884 37.8671 21.6518C35.3899 21.3905 32.9883 23.1416 31.7259 23.1416C30.4391 23.1416 28.4955 21.6778 26.4026 21.7211C25.0488 21.765 23.7294 22.1607 22.573 22.8694C21.4166 23.5782 20.4627 24.5759 19.804 25.7654C16.951 30.7298 19.0791 38.0259 21.8121 42.0388C23.1795 44.0037 24.7775 46.1987 26.8686 46.1208C28.9148 46.0355 29.679 44.8095 32.149 44.8095C34.596 44.8095 35.313 46.1208 37.4465 46.0714C39.6422 46.0355 41.0256 44.0976 42.345 42.114C43.3275 40.7139 44.0835 39.1665 44.585 37.529C43.3094 36.9868 42.2208 36.0792 41.455 34.9193C40.6891 33.7595 40.28 32.3987 40.2785 31.0067Z" fill="white"/>
<path d="M36.2496 19.0124C37.4468 17.568 38.0366 15.7115 37.8938 13.8372C36.0647 14.0302 34.3752 14.9088 33.1619 16.2977C32.5686 16.9763 32.1143 17.7657 31.8248 18.6208C31.5352 19.4759 31.4163 20.38 31.4746 21.2814C32.3895 21.2908 33.2945 21.0915 34.1216 20.6985C34.9487 20.3055 35.6763 19.729 36.2496 19.0124Z" fill="white"/>
<path d="M57.3468 37.5758H55.3459L59.417 25.7525H61.617L65.6794 37.5758H63.6006L62.5525 34.3017H58.4035L57.3468 37.5758ZM60.5257 27.7967H60.4477L58.8453 32.7945H62.1108L60.5257 27.7967Z" fill="white"/>
<path d="M71.2015 37.7057C70.0148 37.7057 69.114 37.1427 68.6289 36.3025H68.5596V40.6161H66.6367V28.4203H68.5077V29.7629H68.577C69.0793 28.8881 70.0148 28.2991 71.2448 28.2991C73.2976 28.2991 74.7614 29.8495 74.7614 32.5866V33.4008C74.7614 36.1206 73.3149 37.7057 71.2015 37.7057ZM70.7597 36.1206C71.981 36.1206 72.8125 35.1418 72.8125 33.2969V32.6559C72.8125 30.8803 72.033 29.8669 70.7251 29.8669C69.3825 29.8669 68.5423 30.9582 68.5423 32.6473V33.2969C68.5423 35.0292 69.3912 36.1206 70.7597 36.1206Z" fill="white"/>
<path d="M80.9764 37.7057C79.7898 37.7057 78.889 37.1427 78.4039 36.3025H78.3346V40.6161H76.4117V28.4203H78.2826V29.7629H78.3519C78.8543 28.8881 79.7898 28.2991 81.0198 28.2991C83.0726 28.2991 84.5364 29.8495 84.5364 32.5866V33.4008C84.5364 36.1206 83.0899 37.7057 80.9764 37.7057ZM80.5347 36.1206C81.756 36.1206 82.5875 35.1418 82.5875 33.2969V32.6559C82.5875 30.8803 81.808 29.8669 80.5 29.8669C79.1575 29.8669 78.3173 30.9582 78.3173 32.6473V33.2969C78.3173 35.0292 79.1661 36.1206 80.5347 36.1206Z" fill="white"/>
<path d="M88.5212 34.293H90.4441C90.5308 35.3151 91.4316 36.1899 93.1033 36.1899C94.6364 36.1899 95.5459 35.471 95.5459 34.3536C95.5459 33.4528 94.9396 32.9678 93.675 32.6646L91.7347 32.1795C90.2103 31.8244 88.8417 30.9149 88.8417 28.992C88.8417 26.7313 90.8166 25.4927 93.112 25.4927C95.4073 25.4927 97.3216 26.7313 97.3649 28.94H95.4766C95.39 27.9353 94.6191 27.1038 93.086 27.1038C91.7347 27.1038 90.8166 27.7447 90.8166 28.8448C90.8166 29.6157 91.3536 30.17 92.4537 30.4212L94.3852 30.8976C96.1609 31.3307 97.5121 32.1709 97.5121 34.1804C97.5121 36.5017 95.6325 37.8097 92.956 37.8097C89.6646 37.8097 88.5645 35.8868 88.5212 34.293Z" fill="white"/>
<path d="M99.8553 28.4203V26.1943H101.744V28.4203H103.528V29.9621H101.744V34.8474C101.744 35.8435 102.116 36.1206 103.147 36.1206C103.311 36.1206 103.467 36.1206 103.58 36.1033V37.5758C103.424 37.6018 103.06 37.6364 102.67 37.6364C100.444 37.6364 99.8293 36.8396 99.8293 35.0033V29.9621H98.5647V28.4203H99.8553Z" fill="white"/>
<path d="M108.721 28.2644C111.354 28.2644 112.783 30.118 112.783 32.6126V33.3489C112.783 35.9301 111.363 37.7317 108.721 37.7317C106.079 37.7317 104.641 35.9301 104.641 33.3489V32.6126C104.641 30.1267 106.088 28.2644 108.721 28.2644ZM108.721 29.8062C107.292 29.8062 106.581 30.9756 106.581 32.6386V33.3402C106.581 34.9773 107.283 36.1813 108.721 36.1813C110.159 36.1813 110.852 34.9859 110.852 33.3402V32.6386C110.852 30.9669 110.15 29.8062 108.721 29.8062Z" fill="white"/>
<path d="M114.407 37.5758V28.4203H116.33V29.6243H116.4C116.634 29.0526 117.318 28.2904 118.591 28.2904C118.842 28.2904 119.059 28.3077 119.241 28.3424V30.0401C119.076 29.9968 118.738 29.9708 118.418 29.9708C116.876 29.9708 116.356 30.9236 116.356 32.1536V37.5758H114.407Z" fill="white"/>
<path d="M123.905 37.7317C121.454 37.7317 119.895 36.112 119.895 33.4008V32.474C119.895 29.9188 121.419 28.2644 123.827 28.2644C126.27 28.2644 127.742 29.9795 127.742 32.5607V33.4355H121.792V33.652C121.792 35.1938 122.623 36.2159 123.931 36.2159C124.91 36.2159 125.577 35.7308 125.811 34.9426H127.638C127.361 36.4238 126.166 37.7317 123.905 37.7317ZM121.792 32.0929H125.863V32.0756C125.863 30.7763 125.057 29.7542 123.836 29.7542C122.597 29.7542 121.792 30.7763 121.792 32.0756V32.0929Z" fill="white"/>
</svg>
