<svg width="93" height="34" viewBox="0 0 93 34" fill="none" xmlns="http://www.w3.org/2000/svg">
<g clip-path="url(#clip0_665_2955)">
<path d="M39.7076 17.8265C39.7076 22.3563 36.2621 25.6943 32.0335 25.6943C27.8049 25.6943 24.3594 22.3563 24.3594 17.8265C24.3594 13.2647 27.8049 9.95865 32.0335 9.95865C36.2621 9.95865 39.7076 13.2647 39.7076 17.8265ZM36.3482 17.8265C36.3482 14.9957 34.3512 13.059 32.0335 13.059C29.7158 13.059 27.7188 14.9959 27.7188 17.8265C27.7188 20.6289 29.7158 22.5939 32.0335 22.5939C34.3512 22.5941 36.3482 20.6253 36.3482 17.8265Z" fill="#FF4131"/>
<path d="M56.2631 17.8265C56.2631 22.3563 52.8175 25.6943 48.5889 25.6943C44.3603 25.6943 40.9148 22.3563 40.9148 17.8265C40.9148 13.2682 44.3603 9.95865 48.5889 9.95865C52.8173 9.95865 56.2631 13.2647 56.2631 17.8265ZM52.9036 17.8265C52.9036 14.9957 50.9067 13.059 48.5889 13.059C46.2712 13.059 44.2742 14.9959 44.2742 17.8265C44.2742 20.6289 46.2712 22.5939 48.5889 22.5939C50.9067 22.5941 52.9036 20.6253 52.9036 17.8265Z" fill="#FFBC00"/>
<path d="M72.1287 10.4341V24.5592C72.1287 30.3697 68.7968 32.7428 64.8582 32.7428C61.1505 32.7428 58.9189 30.1922 58.0773 28.1064L61.0021 26.8542C61.5229 28.1348 62.7991 29.646 64.8547 29.646C67.3759 29.646 68.9383 28.0461 68.9383 25.0345V23.9029H68.821C68.0692 24.8572 66.6204 25.6907 64.7926 25.6907C60.9676 25.6907 57.4634 22.264 57.4634 17.8549C57.4634 13.4138 60.9676 9.95865 64.7926 9.95865C66.6172 9.95865 68.0657 10.7922 68.821 11.7181H68.9383V10.4375H72.1287V10.4341ZM69.1763 17.8549C69.1763 15.0844 67.3793 13.059 65.0926 13.059C62.7749 13.059 60.833 15.0844 60.833 17.8549C60.833 20.5969 62.7747 22.5939 65.0926 22.5939C67.3793 22.5941 69.1763 20.5969 69.1763 17.8549Z" fill="#0085F7"/>
<path d="M77.3884 2.15472V25.212H74.1118V2.15472H77.3884Z" fill="#00A94B"/>
<path d="M90.1567 20.4161L92.7641 22.2039C91.9226 23.4845 89.8946 25.6908 86.3904 25.6908C82.0446 25.6908 78.7991 22.2356 78.7991 17.8229C78.7991 13.144 82.0722 9.95511 86.0144 9.95511C89.9841 9.95511 91.9261 13.2043 92.5607 14.9602L92.9091 15.8541L82.6827 20.2102C83.4656 21.7888 84.6831 22.594 86.3904 22.594C88.1011 22.5941 89.2875 21.7285 90.1567 20.4161ZM82.1309 17.5853L88.967 14.666C88.591 13.6833 87.4597 12.9989 86.1285 12.9989C84.421 12.9987 82.0446 14.5488 82.1309 17.5853Z" fill="#FF4131"/>
<path d="M11.9567 15.7797V12.4418H22.8936C23.0006 13.0235 23.0556 13.7117 23.0556 14.4565C23.0556 16.961 22.3899 20.0576 20.2448 22.264C18.1581 24.4989 15.4919 25.6907 11.9601 25.6907C5.4138 25.6907 -0.0908203 20.2067 -0.0908203 13.4741C-0.0908203 6.74154 5.4138 1.25726 11.9601 1.25726C15.5817 1.25726 18.1615 2.7187 20.0998 4.62364L17.8097 6.97898C16.4198 5.63803 14.5365 4.59524 11.9567 4.59524C7.17626 4.59524 3.43755 8.55755 3.43755 13.4741C3.43755 18.3907 7.17626 22.353 11.9567 22.353C15.0573 22.353 16.8232 21.0724 17.9546 19.9089C18.8721 18.9653 19.4757 17.6174 19.7136 15.7764L11.9567 15.7797Z" fill="#0085F7"/>
</g>
<defs>
<clipPath id="clip0_665_2955">
<rect width="93" height="34" fill="white"/>
</clipPath>
</defs>
</svg>
