<svg width="139" height="40" viewBox="0 0 139 40" fill="none" xmlns="http://www.w3.org/2000/svg">
<rect x="29.55" y="4.95347" width="9.85007" height="9.85007" rx="4.92504" fill="#00896F"/>
<rect x="8.53027" y="0.0283699" width="22.1627" height="9.85007" rx="4.92504" transform="rotate(60 8.53027 0.0283699)" fill="#845EC2"/>
<rect x="34.3867" y="20.3442" width="22.1627" height="9.85007" rx="4.92504" transform="rotate(120 34.3867 20.3442)" fill="#00A1F3"/>
<path d="M55.7452 31.2829L48.173 9.73588H51.9283L57.8691 27.0351L63.8715 9.73588H67.5345L59.993 31.2829H55.7452ZM72.4494 12.7525C72.0595 13.1218 71.5773 13.3065 71.0027 13.3065C70.4281 13.3065 69.9459 13.1218 69.556 12.7525C69.1661 12.3626 68.9711 11.8803 68.9711 11.3057C68.9711 10.7311 69.1661 10.2592 69.556 9.88979C69.9459 9.49989 70.4281 9.30494 71.0027 9.30494C71.5773 9.30494 72.0595 9.49989 72.4494 9.88979C72.8393 10.2592 73.0343 10.7311 73.0343 11.3057C73.0343 11.8803 72.8393 12.3626 72.4494 12.7525ZM69.3097 31.2829V15.5228H72.6341V31.2829H69.3097ZM80.1407 31.2829L74.323 15.5228H77.8937L82.2339 27.7123L86.5125 15.5228H90.0216L84.2039 31.2829H80.1407ZM94.8442 12.7525C94.4543 13.1218 93.972 13.3065 93.3974 13.3065C92.8228 13.3065 92.3406 13.1218 91.9507 12.7525C91.5608 12.3626 91.3659 11.8803 91.3659 11.3057C91.3659 10.7311 91.5608 10.2592 91.9507 9.88979C92.3406 9.49989 92.8228 9.30494 93.3974 9.30494C93.972 9.30494 94.4543 9.49989 94.8442 9.88979C95.2341 10.2592 95.429 10.7311 95.429 11.3057C95.429 11.8803 95.2341 12.3626 94.8442 12.7525ZM91.7045 31.2829V15.5228H95.0289V31.2829H91.7045ZM110.262 17.7083V9.73588H113.586V31.2829H110.693L110.292 28.9127C109.041 30.616 107.327 31.4676 105.152 31.4676C102.956 31.4676 101.161 30.7494 99.7651 29.3129C98.3902 27.8559 97.7028 25.8859 97.7028 23.4029C97.7028 21.0019 98.4005 19.0627 99.7959 17.5852C101.212 16.0871 102.997 15.3381 105.152 15.3381C107.409 15.3381 109.112 16.1282 110.262 17.7083ZM102.382 27.2198C103.223 28.1842 104.331 28.6665 105.706 28.6665C107.081 28.6665 108.189 28.1842 109.03 27.2198C109.872 26.2553 110.292 25.0035 110.292 23.4644C110.292 21.8843 109.872 20.612 109.03 19.6475C108.189 18.6625 107.081 18.17 105.706 18.17C104.331 18.17 103.223 18.6625 102.382 19.6475C101.54 20.612 101.119 21.8638 101.119 23.4029C101.119 24.9625 101.54 26.2348 102.382 27.2198ZM116.835 31.2829V9.73588H120.159V31.2829H116.835ZM127.973 31.3753L121.848 15.5228H125.388L129.79 27.4968L134.068 15.5228H137.608L130.467 33.7454C129.933 35.1409 129.41 36.1053 128.897 36.6389C128.384 37.1724 127.584 37.4392 126.496 37.4392H122.925V34.515H125.265C125.901 34.515 126.342 34.4124 126.588 34.2072C126.855 34.0019 127.112 33.571 127.358 32.9143L127.973 31.3753Z" fill="black"/>
</svg>
