<svg width="161" height="62" viewBox="0 0 161 62" fill="none" xmlns="http://www.w3.org/2000/svg">
<rect width="160.908" height="61.1717" rx="10.6386" fill="#121410"/>
<path d="M29.1137 30.0577L17.0225 43.5666C17.0236 43.569 17.0236 43.5726 17.0247 43.575C17.3961 45.0418 18.668 46.1213 20.1784 46.1213C20.7826 46.1213 21.3493 45.9492 21.8353 45.6479L21.8739 45.624L35.4835 37.3573L29.1137 30.0577Z" fill="#EA4335"/>
<path d="M41.3445 27.7565L41.3331 27.7481L35.4573 24.1628L28.8376 30.3638L35.4812 37.355L41.3252 33.8056C42.3495 33.2222 43.0457 32.0853 43.0457 30.775C43.0457 29.472 42.3597 28.341 41.3445 27.7565Z" fill="#FBBC04"/>
<path d="M17.0222 17.927C16.9495 18.2092 16.9109 18.5056 16.9109 18.8117V42.6831C16.9109 42.9891 16.9495 43.2856 17.0233 43.5665L29.529 30.4031L17.0222 17.927Z" fill="#4285F4"/>
<path d="M29.2024 30.7458L35.4598 24.1599L21.8661 15.8633C21.3721 15.5513 20.7952 15.372 20.1786 15.372C18.6682 15.372 17.394 16.4539 17.0226 17.9219C17.0226 17.9231 17.0215 17.9243 17.0215 17.9255L29.2024 30.7458Z" fill="#34A853"/>
<path d="M119.139 36.0711H121.033V23.2695H119.139V36.0711ZM136.195 27.8808L134.024 33.4311H133.959L131.706 27.8808H129.666L133.045 35.6379L131.12 39.9533H133.093L138.3 27.8808H136.195ZM125.456 34.617C124.835 34.617 123.97 34.3046 123.97 33.5294C123.97 32.5422 125.047 32.1633 125.978 32.1633C126.81 32.1633 127.203 32.3446 127.708 32.5914C127.561 33.7772 126.549 34.617 125.456 34.617ZM125.684 27.6012C124.313 27.6012 122.893 28.2105 122.306 29.5612L123.987 30.2689C124.346 29.5612 125.015 29.3298 125.717 29.3298C126.696 29.3298 127.692 29.9227 127.708 30.9775V31.1086C127.365 30.9109 126.631 30.615 125.733 30.615C123.922 30.615 122.077 31.6196 122.077 33.4967C122.077 35.2099 123.563 36.3138 125.227 36.3138C126.5 36.3138 127.203 35.7373 127.643 35.0614H127.708V36.0496H129.536V31.1414C129.536 28.869 127.855 27.6012 125.684 27.6012M113.982 29.4394H111.289V25.0514H113.982C115.398 25.0514 116.201 26.2341 116.201 27.2449C116.201 28.2372 115.398 29.4394 113.982 29.4394ZM113.933 23.2695H109.396V36.0711H111.289V31.2212H113.933C116.032 31.2212 118.095 29.6872 118.095 27.2449C118.095 24.8025 116.032 23.2695 113.933 23.2695M89.1916 34.619C87.8835 34.619 86.7886 33.5141 86.7886 31.9964C86.7886 30.4624 87.8835 29.3401 89.1916 29.3401C90.4834 29.3401 91.4962 30.4624 91.4962 31.9964C91.4962 33.5141 90.4834 34.619 89.1916 34.619ZM91.3663 28.5976H91.3003C90.8751 28.0866 90.0582 27.6248 89.0282 27.6248C86.8698 27.6248 84.8919 29.5377 84.8919 31.9964C84.8919 34.4378 86.8698 36.3353 89.0282 36.3353C90.0582 36.3353 90.8751 35.8735 91.3003 35.3451H91.3663V35.9728C91.3663 37.6389 90.4834 38.5298 89.0607 38.5298C87.8998 38.5298 87.1803 37.6881 86.886 36.9784L85.2349 37.6717C85.7088 38.8268 86.9682 40.2451 89.0607 40.2451C91.2841 40.2451 93.1645 38.9251 93.1645 35.7086V27.888H91.3663V28.5976ZM94.4726 36.0711H96.3692V23.2685H94.4726V36.0711ZM99.1639 31.8479C99.1152 30.1654 100.456 29.3073 101.42 29.3073C102.173 29.3073 102.81 29.6862 103.022 30.231L99.1639 31.8479ZM105.05 30.3958C104.69 29.423 103.595 27.6248 101.355 27.6248C99.1315 27.6248 97.2846 29.3892 97.2846 31.98C97.2846 34.4214 99.1152 36.3353 101.567 36.3353C103.546 36.3353 104.69 35.1146 105.164 34.405L103.693 33.4147C103.203 34.1408 102.532 34.619 101.567 34.619C100.603 34.619 99.9159 34.1736 99.4745 33.3L105.246 30.8905L105.05 30.3958ZM59.0716 28.9612V30.8085H63.4525C63.3216 31.8479 62.9786 32.6068 62.456 33.1341C61.8176 33.7783 60.8201 34.4879 59.0716 34.4879C56.3733 34.4879 54.2646 32.2934 54.2646 29.5715C54.2646 26.8486 56.3733 24.655 59.0716 24.655C60.5268 24.655 61.5893 25.2326 62.3738 25.975L63.6656 24.6714C62.5696 23.6156 61.1154 22.8066 59.0716 22.8066C55.3768 22.8066 52.2705 25.8429 52.2705 29.5715C52.2705 33.3 55.3768 36.3353 59.0716 36.3353C61.0657 36.3353 62.5696 35.6748 63.7468 34.4378C64.9574 33.2171 65.3329 31.5018 65.3329 30.1153C65.3329 29.6862 65.3004 29.2909 65.2344 28.9612H59.0716ZM70.3145 34.619C69.0064 34.619 67.878 33.5304 67.878 31.98C67.878 30.4122 69.0064 29.3401 70.3145 29.3401C71.6215 29.3401 72.75 30.4122 72.75 31.98C72.75 33.5304 71.6215 34.619 70.3145 34.619ZM70.3145 27.6248C67.9267 27.6248 65.9813 29.4558 65.9813 31.98C65.9813 34.4879 67.9267 36.3353 70.3145 36.3353C72.7013 36.3353 74.6466 34.4879 74.6466 31.98C74.6466 29.4558 72.7013 27.6248 70.3145 27.6248ZM79.7652 34.619C78.4572 34.619 77.3287 33.5304 77.3287 31.98C77.3287 30.4122 78.4572 29.3401 79.7652 29.3401C81.0733 29.3401 82.2007 30.4122 82.2007 31.98C82.2007 33.5304 81.0733 34.619 79.7652 34.619ZM79.7652 27.6248C77.3784 27.6248 75.4331 29.4558 75.4331 31.98C75.4331 34.4879 77.3784 36.3353 79.7652 36.3353C82.152 36.3353 84.0974 34.4879 84.0974 31.98C84.0974 29.4558 82.152 27.6248 79.7652 27.6248Z" fill="white"/>
</svg>
