<svg width="116" height="24" viewBox="0 0 116 24" fill="none" xmlns="http://www.w3.org/2000/svg">
<path d="M9.04893 3.92704C9.34828 3.00573 10.6517 3.00573 10.951 3.92704L12.0206 7.21883C12.1545 7.63086 12.5384 7.90982 12.9717 7.90982H16.4329C17.4016 7.90982 17.8044 9.14943 17.0207 9.71883L14.2205 11.7533C13.87 12.0079 13.7233 12.4593 13.8572 12.8713L14.9268 16.1631C15.2261 17.0844 14.1717 17.8505 13.3879 17.2811L10.5878 15.2467C10.2373 14.9921 9.76269 14.9921 9.4122 15.2467L6.61203 17.2811C5.82832 17.8505 4.77384 17.0844 5.07319 16.1631L6.14276 12.8713C6.27663 12.4593 6.12997 12.0079 5.77949 11.7533L2.97932 9.71883C2.1956 9.14943 2.59838 7.90982 3.5671 7.90982H7.0283C7.46153 7.90982 7.84548 7.63086 7.97936 7.21883L9.04893 3.92704Z" fill="#FFBC00"/>
<path d="M33.0489 3.92704C33.3483 3.00573 34.6517 3.00573 34.951 3.92704L36.0206 7.21883C36.1545 7.63086 36.5384 7.90982 36.9717 7.90982H40.4329C41.4016 7.90982 41.8044 9.14943 41.0207 9.71883L38.2205 11.7533C37.87 12.0079 37.7233 12.4593 37.8572 12.8713L38.9268 16.1631C39.2261 17.0844 38.1717 17.8505 37.3879 17.2811L34.5878 15.2467C34.2373 14.9921 33.7627 14.9921 33.4122 15.2467L30.612 17.2811C29.8283 17.8505 28.7738 17.0844 29.0732 16.1631L30.1428 12.8713C30.2766 12.4593 30.13 12.0079 29.7795 11.7533L26.9793 9.71883C26.1956 9.14943 26.5984 7.90982 27.5671 7.90982H31.0283C31.4615 7.90982 31.8455 7.63086 31.9794 7.21883L33.0489 3.92704Z" fill="#FFBC00"/>
<path d="M57.0489 3.92704C57.3483 3.00573 58.6517 3.00573 58.951 3.92704L60.0206 7.21883C60.1545 7.63086 60.5384 7.90982 60.9717 7.90982H64.4329C65.4016 7.90982 65.8044 9.14943 65.0207 9.71883L62.2205 11.7533C61.87 12.0079 61.7233 12.4593 61.8572 12.8713L62.9268 16.1631C63.2261 17.0844 62.1717 17.8505 61.3879 17.2811L58.5878 15.2467C58.2373 14.9921 57.7627 14.9921 57.4122 15.2467L54.612 17.2811C53.8283 17.8505 52.7738 17.0844 53.0732 16.1631L54.1428 12.8713C54.2766 12.4593 54.13 12.0079 53.7795 11.7533L50.9793 9.71883C50.1956 9.14943 50.5984 7.90982 51.5671 7.90982H55.0283C55.4615 7.90982 55.8455 7.63086 55.9794 7.21883L57.0489 3.92704Z" fill="#FFBC00"/>
<path d="M81.0489 3.92704C81.3483 3.00573 82.6517 3.00573 82.951 3.92704L84.0206 7.21883C84.1545 7.63086 84.5384 7.90982 84.9717 7.90982H88.4329C89.4016 7.90982 89.8044 9.14943 89.0207 9.71883L86.2205 11.7533C85.87 12.0079 85.7233 12.4593 85.8572 12.8713L86.9268 16.1631C87.2261 17.0844 86.1717 17.8505 85.3879 17.2811L82.5878 15.2467C82.2373 14.9921 81.7627 14.9921 81.4122 15.2467L78.612 17.2811C77.8283 17.8505 76.7738 17.0844 77.0732 16.1631L78.1428 12.8713C78.2766 12.4593 78.13 12.0079 77.7795 11.7533L74.9793 9.71883C74.1956 9.14943 74.5984 7.90982 75.5671 7.90982H79.0283C79.4615 7.90982 79.8455 7.63086 79.9794 7.21883L81.0489 3.92704Z" fill="#FFBC00"/>
<path d="M105.049 3.92704C105.348 3.00573 106.652 3.00573 106.951 3.92704L108.021 7.21883C108.154 7.63086 108.538 7.90982 108.972 7.90982H112.433C113.402 7.90982 113.804 9.14943 113.021 9.71883L110.22 11.7533C109.87 12.0079 109.723 12.4593 109.857 12.8713L110.927 16.1631C111.226 17.0844 110.172 17.8505 109.388 17.2811L106.588 15.2467C106.237 14.9921 105.763 14.9921 105.412 15.2467L102.612 17.2811C101.828 17.8505 100.774 17.0844 101.073 16.1631L102.143 12.8713C102.277 12.4593 102.13 12.0079 101.779 11.7533L98.9793 9.71883C98.1956 9.14943 98.5984 7.90982 99.5671 7.90982H103.028C103.462 7.90982 103.845 7.63086 103.979 7.21883L105.049 3.92704Z" fill="#FFBC00"/>
</svg>
